<svg width="188" height="46" viewBox="0 0 188 46" fill="none" xmlns="http://www.w3.org/2000/svg">
<path fill-rule="evenodd" clip-rule="evenodd" d="M155.353 23.8448C155.353 24.8067 155.238 25.6857 155.01 26.4821C154.782 27.2784 154.447 27.9623 154.007 28.5339C153.567 29.1055 153.029 29.551 152.394 29.8703C151.758 30.1896 151.034 30.3493 150.22 30.3493C149.256 30.3493 148.424 30.1857 147.722 29.8585C147.02 29.5313 146.441 29.0799 145.984 28.5044V35.0325H144.502V17.3167H145.884L145.959 19.1261C146.416 18.4875 146.993 17.9868 147.691 17.6241C148.389 17.2615 149.219 17.0801 150.183 17.0801C151.005 17.0801 151.738 17.2339 152.381 17.5414C153.025 17.8488 153.567 18.2864 154.007 18.8541C154.447 19.4217 154.782 20.1057 155.01 20.9059C155.238 21.7062 155.353 22.603 155.353 23.5964V23.8448ZM153.858 23.5964C153.858 22.8553 153.777 22.1615 153.615 21.515C153.453 20.8685 153.208 20.3087 152.88 19.8357C152.552 19.3626 152.134 18.9901 151.628 18.7181C151.121 18.4461 150.527 18.3101 149.846 18.3101C149.306 18.3101 148.829 18.3771 148.413 18.5111C147.998 18.6452 147.635 18.8245 147.323 19.0492C147.012 19.2739 146.746 19.5341 146.526 19.8298C146.306 20.1254 146.125 20.4349 145.984 20.7581V26.896C146.142 27.2192 146.339 27.5188 146.576 27.7948C146.813 28.0707 147.091 28.3092 147.411 28.5103C147.73 28.7113 148.094 28.869 148.501 28.9833C148.908 29.0976 149.364 29.1548 149.871 29.1548C150.552 29.1548 151.142 29.0188 151.64 28.7468C152.138 28.4748 152.552 28.1003 152.88 27.6233C153.208 27.1463 153.453 26.5846 153.615 25.938C153.777 25.2915 153.858 24.5938 153.858 23.8448V23.5964ZM160.324 30.1127H158.829V11.9475H160.324V30.1127ZM172.882 30.1127C172.798 29.892 172.734 29.6219 172.688 29.3026C172.643 28.9833 172.612 28.6581 172.595 28.327C172.371 28.6029 172.105 28.8631 171.798 29.1075C171.49 29.3519 171.146 29.5648 170.764 29.7461C170.382 29.9275 169.962 30.0733 169.505 30.1837C169.049 30.2941 168.554 30.3493 168.023 30.3493C167.367 30.3493 166.771 30.2586 166.235 30.0773C165.699 29.8959 165.243 29.6417 164.865 29.3145C164.487 28.9873 164.194 28.6029 163.986 28.1614C163.779 27.7199 163.675 27.2389 163.675 26.7186C163.675 26.0957 163.816 25.534 164.098 25.0333C164.381 24.5327 164.788 24.1069 165.319 23.7561C165.851 23.4052 166.497 23.1372 167.257 22.9519C168.017 22.7666 168.87 22.674 169.817 22.674H172.583V21.2193C172.583 20.3048 172.286 19.5853 171.692 19.061C171.098 18.5367 170.232 18.2746 169.094 18.2746C168.571 18.2746 168.089 18.3416 167.649 18.4756C167.209 18.6097 166.829 18.7949 166.509 19.0315C166.189 19.268 165.94 19.542 165.762 19.8534C165.583 20.1648 165.494 20.4979 165.494 20.8527L163.999 20.8409C163.999 20.36 164.123 19.8948 164.373 19.4454C164.622 18.996 164.973 18.5959 165.425 18.245C165.878 17.8942 166.422 17.6123 167.057 17.3994C167.693 17.1866 168.397 17.0801 169.169 17.0801C169.883 17.0801 170.541 17.1669 171.144 17.3403C171.746 17.5138 172.263 17.7739 172.695 18.1208C173.127 18.4678 173.463 18.9014 173.704 19.4217C173.945 19.9421 174.065 20.5492 174.065 21.243V27.44C174.065 27.6608 174.073 27.8894 174.09 28.1259C174.107 28.3624 174.134 28.5911 174.171 28.8118C174.208 29.0326 174.252 29.2435 174.302 29.4446C174.352 29.6456 174.41 29.821 174.476 29.9708V30.1127H172.882ZM168.197 29.0957C168.737 29.0957 169.237 29.0306 169.698 28.9005C170.159 28.7705 170.577 28.5911 170.95 28.3624C171.324 28.1338 171.648 27.8677 171.922 27.5642C172.196 27.2606 172.416 26.9315 172.583 26.5767V23.762H170.029C169.264 23.762 168.581 23.827 167.979 23.9571C167.377 24.0872 166.868 24.2745 166.453 24.5189C166.038 24.7633 165.72 25.0609 165.5 25.4118C165.28 25.7626 165.17 26.1588 165.17 26.6003C165.17 26.9472 165.24 27.2724 165.382 27.576C165.523 27.8795 165.724 28.1437 165.986 28.3684C166.247 28.5931 166.565 28.7705 166.939 28.9005C167.313 29.0306 167.732 29.0957 168.197 29.0957ZM182.312 28.0786L186.249 17.3167H187.856L182.15 32.1587C182.034 32.4504 181.887 32.7776 181.708 33.1403C181.53 33.503 181.297 33.842 181.011 34.1573C180.724 34.4727 180.367 34.7388 179.939 34.9556C179.511 35.1724 178.99 35.2808 178.376 35.2808C178.293 35.2808 178.197 35.2749 178.089 35.2631C177.981 35.2513 177.873 35.2375 177.765 35.2217C177.657 35.2059 177.555 35.1882 177.46 35.1685C177.364 35.1488 177.288 35.131 177.229 35.1153L177.217 33.9445C177.317 33.9602 177.452 33.976 177.622 33.9918C177.792 34.0075 177.915 34.0154 177.989 34.0154C178.388 34.0154 178.741 33.9662 179.048 33.8676C179.356 33.769 179.624 33.6232 179.852 33.43C180.08 33.2369 180.282 32.9944 180.456 32.7027C180.631 32.411 180.788 32.0759 180.93 31.6975L181.577 30.0063L176.494 17.3167H178.126L182.312 28.0786Z" fill="white"/>
<path fill-rule="evenodd" clip-rule="evenodd" d="M0.393616 3.92868V42.151C0.393616 43.4814 1.17362 44.6317 2.30672 45.1805L24.7367 23.0333L2.31572 0.894775C1.17782 1.44188 0.393616 2.59488 0.393616 3.92868ZM7.55332 43.7519L31.8964 30.1567L26.7521 25.1805L7.55332 43.7519ZM39.2296 21.0345C39.9945 21.6606 40.488 22.6471 40.488 23.7567C40.488 24.8497 40.0095 25.823 39.2642 26.4502L34.3787 29.4662L29.0325 23.7501L34.3751 18.0376L39.2296 21.0345ZM31.8964 15.9186L7.55332 2.32328L26.7521 20.8948L31.8964 15.9186Z" fill="white"/>
<path fill-rule="evenodd" clip-rule="evenodd" d="M88.535 31.1347C91.9 31.1347 94.642 28.55 94.642 25.0424C94.642 21.5101 91.9 18.9502 88.535 18.9502C85.171 18.9502 82.429 21.5101 82.429 25.0424C82.429 28.55 85.171 31.1347 88.535 31.1347ZM88.535 21.3508C90.38 21.3508 91.969 22.8506 91.969 25.0424C91.969 27.2096 90.38 28.7341 88.535 28.7341C86.691 28.7341 85.102 27.2124 85.102 25.0424C85.102 22.8506 86.691 21.3508 88.535 21.3508Z" fill="white"/>
<path fill-rule="evenodd" clip-rule="evenodd" d="M102.105 31.1347C105.47 31.1347 108.212 28.55 108.212 25.0424C108.212 21.5101 105.47 18.9502 102.105 18.9502C98.74 18.9502 95.998 21.5129 95.998 25.0424C95.998 28.55 98.74 31.1347 102.105 31.1347ZM102.105 21.3508C103.949 21.3508 105.539 22.8506 105.539 25.0424C105.539 27.2096 103.949 28.7341 102.105 28.7341C100.261 28.7341 98.672 27.2124 98.672 25.0424C98.672 22.8506 100.261 21.3508 102.105 21.3508Z" fill="white"/>
<path fill-rule="evenodd" clip-rule="evenodd" d="M121.782 30.2286V19.3201H119.125V20.3093H119.028C118.399 19.5941 117.192 18.9502 115.673 18.9502C112.487 18.9502 109.569 21.6191 109.569 25.0497C109.569 28.4557 112.487 31.1027 115.673 31.1027C117.195 31.1027 118.402 30.4587 119.028 29.7216H119.125V30.5957C119.125 32.9221 117.824 34.1579 115.725 34.1579C114.013 34.1579 112.95 32.9906 112.516 32.0014L110.08 32.9687C110.781 34.5799 112.64 36.55 115.727 36.55C119.008 36.55 121.782 34.7169 121.782 30.2286ZM115.923 21.3451C117.827 21.3451 119.324 22.9097 119.324 25.0497C119.324 27.1678 117.827 28.7105 115.923 28.7105C113.993 28.7105 112.375 27.1678 112.375 25.0497C112.375 22.9097 113.993 21.3451 115.923 21.3451Z" fill="white"/>
<path d="M125.853 13.5354V29.7814H123.139V13.5354H125.853Z" fill="white"/>
<path fill-rule="evenodd" clip-rule="evenodd" d="M137.955 28.4347L135.949 27.0503C135.28 28.0666 134.367 28.7368 133.051 28.7368C131.738 28.7368 130.801 28.1133 130.198 26.891L138.067 23.518L137.799 22.8258C137.31 21.4662 135.816 18.9502 132.762 18.9502C129.729 18.9502 127.21 21.4195 127.21 25.0424C127.21 28.4594 129.707 31.1347 133.051 31.1347C135.747 31.1347 137.308 29.4262 137.955 28.4347ZM135.033 22.5979L129.774 24.8584C129.707 22.5072 131.536 21.3069 132.849 21.3069C133.874 21.3069 134.744 21.837 135.033 22.5979Z" fill="white"/>
<path d="M72.6121 22.6419V20.2375H80.948C81.029 20.6566 81.071 21.1523 81.071 21.6888C81.071 23.4928 80.564 25.7234 78.9289 27.3127C77.3385 28.9225 75.3065 29.781 72.6147 29.781C67.6254 29.781 63.4299 25.8307 63.4299 20.9811C63.4299 16.1314 67.6254 12.1812 72.6147 12.1812C75.3749 12.1812 77.3411 13.2339 78.8185 14.606L77.073 16.3026C76.0136 15.3368 74.5784 14.5855 72.6121 14.5855C68.9687 14.5855 66.1191 17.4396 66.1191 20.9811C66.1191 24.5225 68.9687 27.3766 72.6121 27.3766C74.9753 27.3766 76.3212 26.4542 77.1834 25.6161C77.8827 24.9364 78.3427 23.9655 78.5241 22.6394L72.6121 22.6419Z" fill="white"/>
</svg>
