<svg width="20" height="20" viewBox="0 0 20 20" fill="none" xmlns="http://www.w3.org/2000/svg">
<path fill-rule="evenodd" clip-rule="evenodd" d="M5.14166 3.33338C5.49449 2.33341 6.4396 1.66467 7.49999 1.66467C8.56038 1.66467 9.50549 2.33341 9.85832 3.33338H18.3333V5.00005H9.85832C9.50549 6.00002 8.56038 6.66876 7.49999 6.66876C6.4396 6.66876 5.49449 6.00002 5.14166 5.00005H1.66666V3.33338H5.14166ZM12.5 7.49801C11.4396 7.49801 10.4945 8.16675 10.1417 9.16672H1.66666V10.8334H10.1417C10.4945 11.8333 11.4396 12.5021 12.5 12.5021C13.5604 12.5021 14.5055 11.8333 14.8583 10.8334H18.3333V9.16672H14.8583C14.5055 8.16675 13.5604 7.49801 12.5 7.49801ZM7.49999 13.3313C6.4396 13.3313 5.49449 14.0001 5.14166 15H1.66666V16.6667H5.14166C5.49449 17.6667 6.4396 18.3354 7.49999 18.3354C8.56038 18.3354 9.50549 17.6667 9.85832 16.6667H18.3333V15H9.85832C9.50549 14.0001 8.56038 13.3313 7.49999 13.3313ZM8.33332 4.16671C8.33332 4.62695 7.96023 5.00005 7.49999 5.00005C7.03975 5.00005 6.66666 4.62695 6.66666 4.16671C6.66666 3.70648 7.03975 3.33338 7.49999 3.33338C7.96023 3.33338 8.33332 3.70648 8.33332 4.16671ZM12.5 10.8334C12.9602 10.8334 13.3333 10.4603 13.3333 10C13.3333 9.53981 12.9602 9.16672 12.5 9.16672C12.0398 9.16672 11.6667 9.53981 11.6667 10C11.6667 10.4603 12.0398 10.8334 12.5 10.8334ZM8.33332 15.8334C8.33332 16.2936 7.96023 16.6667 7.49999 16.6667C7.03975 16.6667 6.66666 16.2936 6.66666 15.8334C6.66666 15.3731 7.03975 15 7.49999 15C7.96023 15 8.33332 15.3731 8.33332 15.8334Z" fill="black"/>
</svg>
